<svg id="Слой_1" data-name="Слой 1" xmlns="http://www.w3.org/2000/svg" viewBox="0 0 48 48">
  <title>bels</title>
  <g id="UI-kit">
    <g id="Icons">
      <g id="Rectangle-6-Copy">
        <rect width="48" height="48" style="fill: none"/>
        <g id="noun_clockwise_981024-04" data-name="noun clockwise 981024-04">
          <rect id="Rectangle-path" y="43.77" width="48" height="1"/>
          <path id="Shape" d="M1.57,36V29.28A22.32,22.32,0,0,1,23.23,6.88a.32.32,0,0,0,.29-.31V5a.32.32,0,0,0-.3-.3H21.65a2.06,2.06,0,0,1-1.78-1A2,2,0,0,1,21.65.6h4.7a2,2,0,1,1,0,4.09H24.78a.32.32,0,0,0-.3.3V6.56a.32.32,0,0,0,.29.31A22.33,22.33,0,0,1,46.43,29.28V36Zm1.27-4.7a.35.35,0,0,0-.22.08.31.31,0,0,0-.09.22v3.14a.31.31,0,0,0,.09.22.35.35,0,0,0,.22.08H45.17a.35.35,0,0,0,.22-.08.31.31,0,0,0,.09-.22V31.63a.31.31,0,0,0-.09-.22.35.35,0,0,0-.22-.08ZM24,7.81A21.49,21.49,0,0,0,2.53,29.28v.78a.31.31,0,0,0,.31.31H45.16a.31.31,0,0,0,.31-.31v-.78A21.49,21.49,0,0,0,24,7.81ZM21.65,1.53a1.09,1.09,0,1,0,0,2.18h4.7a1.09,1.09,0,0,0,0-2.18Z" transform="translate(0 4)"/>
          <path id="Shape-2" data-name="Shape" d="M40.6,25.06a.48.48,0,0,1-.46-.35A16.84,16.84,0,0,0,30.86,14a.44.44,0,0,1-.25-.27.43.43,0,0,1,0-.35.48.48,0,0,1,.44-.29.41.41,0,0,1,.19.05A17.61,17.61,0,0,1,41,24.47a.48.48,0,0,1,0,.37.46.46,0,0,1-.29.22Z" transform="translate(0 4)"/>
          <rect id="Rectangle-path-2" data-name="Rectangle-path" x="23.52" y="30.45" width="1" height="1"/>
          <rect id="Rectangle-path-3" data-name="Rectangle-path" x="20.38" y="30.45" width="1" height="1"/>
          <rect id="Rectangle-path-4" data-name="Rectangle-path" x="26.66" y="30.45" width="1" height="1"/>
        </g>
      </g>
    </g>
  </g>
</svg>
