<svg id="Слой_1" data-name="Слой 1" xmlns="http://www.w3.org/2000/svg" viewBox="0 0 49 49.02">
  <title>cup</title>
  <g id="UI-kit">
    <g id="Icons">
      <g id="Rectangle-6">
        <rect y="0.02" width="49" height="49" style="fill: none"/>
        <g id="noun_clockwise_981024-06" data-name="noun clockwise 981024-06">
          <path id="Shape" d="M11.12,43.56a2.37,2.37,0,0,1-2.33-2.09A11.54,11.54,0,0,0,6,35.26c-6.19-7-7.55-15.76-3.64-23.57l.17-.32H37.72l.16.32a21.28,21.28,0,0,1,1.35,3.45.23.23,0,0,0,.18.15,9.05,9.05,0,1,1-.61,18.09,8.82,8.82,0,0,1-2.6-.4h-.06a.17.17,0,0,0-.16.09c-.57.79-1.14,1.51-1.74,2.2a11.46,11.46,0,0,0-2.17,3.59,11.29,11.29,0,0,0-.65,2.62,2.36,2.36,0,0,1-2.33,2.09ZM9.39,38.12a.21.21,0,0,0-.16.08.21.21,0,0,0,0,.19A12.91,12.91,0,0,1,10,41.33a1.22,1.22,0,0,0,1.19,1.08h18a1.21,1.21,0,0,0,1.18-1.08,13.69,13.69,0,0,1,.7-2.89.2.2,0,0,0,0-.21.19.19,0,0,0-.16-.11ZM3.34,12.53a.19.19,0,0,0-.18.11c-3.42,7.25-2,15.41,3.69,21.85a12.61,12.61,0,0,1,1.66,2.37.19.19,0,0,0,.17.1H31.56a.22.22,0,0,0,.18-.1,12.07,12.07,0,0,1,1.64-2.37,24,24,0,0,0,2.73-3.76l.06-.09c.24-.41.47-.83.68-1.25v-.11A19,19,0,0,0,38,26.71v-.12a20.41,20.41,0,0,0,.66-2.67v-.17a10.89,10.89,0,0,1,.14-1.13v-.26c0-.44.06-.87.07-1.3s0-.86,0-1.25v-.4a2.87,2.87,0,0,0-.09-.88l-.05-.45c-.06-.37-.13-.75-.21-1.12l-.15-.62a19.59,19.59,0,0,0-1.3-3.7.2.2,0,0,0-.18-.11Zm36.5,3.94a.2.2,0,0,0-.14.06.27.27,0,0,0-.06.17.72.72,0,0,0,.07.38c.08.38.14.76.19,1.15l.07.58.05.7v2.94a6.14,6.14,0,0,1-.13,1.1l-.1.64a3.66,3.66,0,0,1-.17.85c-.07.28-.06.31-.09.44-.09.38-.19.74-.3,1.1l-.12.37c-.14.43-.28.85-.45,1.27a.78.78,0,0,1,0,.14c-.18.46-.36.86-.56,1.27l-.07.16c-.22.43-.45.86-.7,1.29l-.36.63a.19.19,0,0,0,0,.18A.21.21,0,0,0,37,32a7.19,7.19,0,0,0,1.79.22,7.92,7.92,0,0,0,1.07-15.76Z" transform="translate(0 0)"/>
          <rect id="Rectangle-path" x="0.81" y="46.85" width="41.61" height="1.15"/>
          <rect id="Rectangle-path-2" data-name="Rectangle-path" x="5.32" y="3.12" width="8.47" height="1.16" transform="translate(0.77 8.97) rotate(-52.11)"/>
          <rect id="Rectangle-path-3" data-name="Rectangle-path" x="12.32" y="3.13" width="8.47" height="1.16" transform="translate(3.46 14.5) rotate(-52.11)"/>
          <rect id="Rectangle-path-4" data-name="Rectangle-path" x="19.33" y="3.12" width="8.47" height="1.16" transform="translate(6.18 20.02) rotate(-52.11)"/>
          <rect id="Rectangle-path-5" data-name="Rectangle-path" x="26.34" y="3.12" width="8.47" height="1.16" transform="translate(8.88 25.56) rotate(-52.11)"/>
          <rect id="Rectangle-path-6" data-name="Rectangle-path" x="17.93" y="15.18" width="1.15" height="1.15"/>
          <rect id="Rectangle-path-7" data-name="Rectangle-path" x="21.04" y="15.18" width="1.15" height="1.15"/>
          <rect id="Rectangle-path-8" data-name="Rectangle-path" x="14.81" y="15.18" width="1.15" height="1.15"/>
        </g>
      </g>
    </g>
  </g>
</svg>
