<svg id="Слой_1" data-name="Слой 1" xmlns="http://www.w3.org/2000/svg" viewBox="0 0 155 13">
  <title>fac-logo</title>
  <g id="Symbols">
    <g id="Footer-mobile-main">
      <g id="by_facility-copy-6" data-name="by facility-copy-6">
        <path id="Shape" d="M1.25,9.49V11H0V0H1.25V4.74A3.58,3.58,0,0,1,4.25,3,3.81,3.81,0,0,1,8,7a3.82,3.82,0,0,1-3.75,4A3,3,0,0,1,1.25,9.49ZM6.62,7.12a2.75,2.75,0,0,0-2.74-3,2.85,2.85,0,0,0-2.76,3,2.92,2.92,0,0,0,2.76,3A2.69,2.69,0,0,0,6.62,7.12Z" style="fill: #94979d"/>
        <path id="Shape-2" data-name="Shape" d="M9.25,12.51l.38-.85a2.22,2.22,0,0,0,1.27.24c.77,0,1.15-.36,1.66-1.46L9,3h1.27l2.92,6.34L15.73,3H17l-3.3,7.8C13.06,12.39,12.3,13,11,13A4.21,4.21,0,0,1,9.25,12.51Z" style="fill: #94979d"/>
        <polygon id="Shape-3" data-name="Shape" points="27 0 35 0 35 1.57 28.81 1.57 28.81 4.34 34.23 4.34 34.23 5.9 28.81 5.9 28.81 10 27 10 27 0" style="fill: #94979d"/>
        <path id="Shape-4" data-name="Shape" d="M47.7,0h1.73L54,11H52L50.91,8.41H46L44.85,11H43Zm2.59,6.73-1.85-4.4-1.73,4.4Z" style="fill: #94979d"/>
        <path id="Shape-5" data-name="Shape" d="M63,5.38A5.13,5.13,0,0,1,68.09,0,5,5,0,0,1,72,1.62L70.93,3a4,4,0,0,0-2.84-1.25A3.48,3.48,0,0,0,64.78,5.5a3.55,3.55,0,0,0,3.31,3.75,3.69,3.69,0,0,0,2.84-1.37L72,9.12A5,5,0,0,1,68,11,5.58,5.58,0,0,1,63,5.38Z" style="fill: #94979d"/>
        <polygon id="Shape-6" data-name="Shape" points="83 0 85 0 85 11 83 11 83 0" style="fill: #94979d"/>
        <polygon id="Shape-7" data-name="Shape" points="97 0 98.78 0 98.78 9.3 104 9.3 104 11 97 11 97 0" style="fill: #94979d"/>
        <polygon id="Shape-8" data-name="Shape" points="115 0 117 0 117 11 115 11 115 0" style="fill: #94979d"/>
        <polygon id="Shape-9" data-name="Shape" points="130.18 1.83 127 1.83 127 0 135 0 135 1.83 131.82 1.83 131.82 11 130.06 11 130.06 1.83 130.18 1.83" style="fill: #94979d"/>
        <polygon id="Shape-10" data-name="Shape" points="149.02 6.14 145 0 147.07 0 150 4.46 152.93 0 155 0 150.98 6.02 150.98 10 149.15 10 149.15 6.14 149.02 6.14" style="fill: #94979d"/>
      </g>
    </g>
  </g>
</svg>
