<svg id="Слой_1" data-name="Слой 1" xmlns="http://www.w3.org/2000/svg" viewBox="0 0 50.02 48">
  <title>lecture</title>
  <g id="UI-kit">
    <g id="Icons">
      <g id="Rectangle-6-Copy-3">
        <rect x="1.02" width="49" height="48" style="fill: none"/>
        <g id="noun_clockwise_981024-02" data-name="noun clockwise 981024-02">
          <path id="Shape" d="M48.91,9.14,27.24.66a.51.51,0,0,0-.45,0L5.2,9.14a.53.53,0,0,0-.38.51.56.56,0,0,0,.38.52l8.64,3.39v9.73a.65.65,0,0,0,.53.59,18.2,18.2,0,0,1,12.17,5.67.45.45,0,0,0,.45.22.63.63,0,0,0,.45-.22,18.19,18.19,0,0,1,12.19-5.67A.53.53,0,0,0,40,23.7a.56.56,0,0,0,.14-.41V13.48l3.31-1.32V27.71a2.29,2.29,0,0,0-1.88,2.21v3.9a.59.59,0,0,0,.17.42.63.63,0,0,0,.43.17h3.75a.63.63,0,0,0,.43-.17.59.59,0,0,0,.17-.42v-3.9a2.29,2.29,0,0,0-1.88-2.21V11.79l4.08-1.62a.56.56,0,0,0,.38-.52A.47.47,0,0,0,48.91,9.14ZM45.44,29.92v3.39H42.81V30a1.18,1.18,0,0,1,.35-.84,1.2,1.2,0,0,1,.85-.34h.3A1.15,1.15,0,0,1,45.44,29.92ZM39.12,22.7a19.42,19.42,0,0,0-12,5.52,18.71,18.71,0,0,0-12-5.52V13.93l11.81,4.64c.07,0,.15.07.22.07a.28.28,0,0,0,.23-.07L39.2,13.93V22.7ZM43.9,10.9l-4.44,1.7c-.08,0-.08,0-.15.07L27,17.46,14.67,12.67a.26.26,0,0,1-.15-.07L6.92,9.65,27,1.77,47.1,9.58Z" transform="translate(0 1)"/>
          <rect id="Rectangle-path" x="24.53" y="39.39" width="1.13" height="1.11"/>
          <rect id="Rectangle-path-2" data-name="Rectangle-path" x="27.16" y="39.39" width="1.13" height="1.11"/>
          <rect id="Rectangle-path-3" data-name="Rectangle-path" x="29.8" y="39.39" width="1.13" height="1.11"/>
          <rect id="Rectangle-path-4" data-name="Rectangle-path" x="21.9" y="39.39" width="1.13" height="1.11"/>
          <rect id="Rectangle-path-5" data-name="Rectangle-path" x="8.95" y="42.27" width="22.8" height="1.11"/>
          <path id="Shape-2" data-name="Shape" d="M0,40.38a5.75,5.75,0,0,0,5.79,5.68H39.72V45a4.57,4.57,0,1,1,0-9.14v-1.1H5.79A5.85,5.85,0,0,0,1.7,36.39,5.56,5.56,0,0,0,0,40.38Zm33.86,0A5.61,5.61,0,0,0,36.26,45H5.79a4.57,4.57,0,1,1,0-9.14H36.26A5.61,5.61,0,0,0,33.86,40.38Z" transform="translate(0 1)"/>
        </g>
      </g>
    </g>
  </g>
</svg>
