<svg id="Слой_1" data-name="Слой 1" xmlns="http://www.w3.org/2000/svg" viewBox="0 0 48 48">
  <title>shild</title>
  <g id="UI-kit">
    <g id="Icons">
      <g id="Rectangle-3">
        <rect width="48" height="48" style="fill: none"/>
        <path id="Combined-Shape" d="M18.84,47.85A33.24,33.24,0,0,1,.19,18.59V4.08A22.31,22.31,0,0,0,6.92,5.22C11.39,5.22,15.35,3.51,19,0c3.88,3.42,8,5.09,12.44,5.09a23.21,23.21,0,0,0,6.52-1V18.36A32,32,0,0,1,19.24,47.94l-.18.06ZM1.64,5.69a.26.26,0,0,0-.19.07A.3.3,0,0,0,1.33,6V18.59a32.2,32.2,0,0,0,17.55,28h.26A30.51,30.51,0,0,0,36.82,18.35V6a.33.33,0,0,0-.31-.31h-.07a19.38,19.38,0,0,1-4.67.57A19.63,19.63,0,0,1,19.21,1.68.27.27,0,0,0,19,1.61a.32.32,0,0,0-.21.08A18.54,18.54,0,0,1,6.55,6.35,17.91,17.91,0,0,1,1.72,5.7ZM18.84,43.3A27.09,27.09,0,0,1,3.69,19.52V7.7a18.19,18.19,0,0,0,5.56,1c3.53,0,6.64-1.34,9.77-4.23,3.17,2.89,6.36,4.24,10,4.24a19.61,19.61,0,0,0,5.43-.86V19.53A26,26,0,0,1,19.24,43.39l-.18.06ZM32,26.45a.29.29,0,0,0-.18.07L15.33,39.35a.3.3,0,0,0,0,.48,17.82,17.82,0,0,0,3.56,2.25.29.29,0,0,0,.13,0,.24.24,0,0,0,.12,0A24.32,24.32,0,0,0,32.25,26.85a.31.31,0,0,0-.11-.34A.35.35,0,0,0,32,26.45ZM16.45,31.94a.33.33,0,0,0-.19.06l-4.9,3.85a.27.27,0,0,0-.11.22.28.28,0,0,0,.09.23l.83.82c.58.55,1.18,1.12,1.72,1.74a.33.33,0,0,0,.23.1.33.33,0,0,0,.19-.06l8.16-6.42a.31.31,0,0,0,.1-.34.3.3,0,0,0-.29-.2Zm-1.87-8.75a.3.3,0,0,0-.18.06l-7.35,5.6a.31.31,0,0,0-.1.36,27.22,27.22,0,0,0,3.31,5.66.28.28,0,0,0,.2.12.33.33,0,0,0,.19-.06L14,32.36a.42.42,0,0,0,.11-.18l1.51-7.58a.31.31,0,0,0,0-.23l-.69-1a.32.32,0,0,0-.21-.13ZM33,19a.33.33,0,0,0-.19.06l-9.68,7.58A.33.33,0,0,0,23,27l.82,3.85A.29.29,0,0,0,24,31h.11a.26.26,0,0,0,.19-.07l8.51-6.64a.31.31,0,0,0,.11-.2,30.93,30.93,0,0,0,.36-4.71v-.12a.31.31,0,0,0-.17-.27ZM15.57,30.43a.28.28,0,0,0,.06.25.32.32,0,0,0,.24.11h6.41a.32.32,0,0,0,.24-.11.28.28,0,0,0,.06-.25l-1.25-6.36A3.47,3.47,0,0,0,22.7,21a3.69,3.69,0,1,0-5.88,3.05Zm7.88-21.7a.28.28,0,0,0-.18,0l-18.08,13a.31.31,0,0,0-.12.27,22,22,0,0,0,1.18,5.55.29.29,0,0,0,.2.2h.09a.3.3,0,0,0,.18-.06L14.19,22a.28.28,0,0,0,.11-.27,5,5,0,0,1,1.23-3.88,4.76,4.76,0,0,1,3.6-1.61,5.18,5.18,0,0,1,1.87.32.24.24,0,0,0,.12,0,.24.24,0,0,0,.18-.07l8.05-6.06a.31.31,0,0,0,.1-.34.32.32,0,0,0-.29-.21,15.39,15.39,0,0,1-5.6-1.15Zm8.64.76L22.45,17a.31.31,0,0,0-.12.23.34.34,0,0,0,.09.24,4.81,4.81,0,0,1,.22,6.8.32.32,0,0,0-.07.28l.12.47a.27.27,0,0,0,.19.21H23a.32.32,0,0,0,.19-.07l10-7.81a.33.33,0,0,0,.12-.24V9.61C33.32,9.09,32.34,9.3,32.09,9.49Zm-26.84,0a.44.44,0,0,0-.19.07A.32.32,0,0,0,5,9.8V19.88a.3.3,0,0,0,.16.27h.14a.37.37,0,0,0,.18,0L21.76,8.46a.33.33,0,0,0,.13-.26.28.28,0,0,0-.15-.2l-.44-.28a16.58,16.58,0,0,1-2.09-1.45A.26.26,0,0,0,19,6.16a.31.31,0,0,0-.21.07A14.85,14.85,0,0,1,9,9.88a15.86,15.86,0,0,1-3.63-.42Z" transform="translate(5)"/>
      </g>
    </g>
  </g>
</svg>
