<svg id="Слой_1" data-name="Слой 1" xmlns="http://www.w3.org/2000/svg" viewBox="0 0 48 48">
  <title>shower</title>
  <g id="UI-kit">
    <g id="Icons">
      <g id="Rectangle-6-Copy-2">
        <rect width="48" height="48" style="fill: none"/>
        <g id="noun_clockwise_981024-05" data-name="noun clockwise 981024-05">
          <path id="Shape" d="M1.31,35.18A.57.57,0,0,1,.92,35a.56.56,0,0,1-.15-.39C.86,28.37,5.32,22.88,11.88,21a.2.2,0,0,0,.14-.19v-4.6a.53.53,0,0,1,.53-.53H14a.2.2,0,0,0,.2-.2V5.77a.2.2,0,0,0-.2-.2H13a.5.5,0,0,1-.42-.15A.51.51,0,0,1,12.42,5V.53a.52.52,0,0,1,.17-.39A.56.56,0,0,1,13,0h7.57a.51.51,0,0,1,.37.16.51.51,0,0,1,.16.37V5.05a.53.53,0,0,1-.53.53H19.46a.21.21,0,0,0-.2.2v9.71a.2.2,0,0,0,.2.2h1.46a.53.53,0,0,1,.53.53v4.57a.18.18,0,0,0,.14.19c6.54,1.9,11,7.39,11.14,13.66a.55.55,0,0,1-.54.54ZM16.74,21.34a16.37,16.37,0,0,0-4.06.51c-6,1.53-10.37,6.37-10.82,12a.27.27,0,0,0,0,.15.21.21,0,0,0,.15.07H31.39a.21.21,0,0,0,.15-.07.27.27,0,0,0,.05-.15c-.45-5.68-4.8-10.52-10.82-12a16.45,16.45,0,0,0-4-.51Zm-3.45-4.59a.2.2,0,0,0-.2.2v3.46a.21.21,0,0,0,.08.16h.46c.31-.05.56-.1.81-.13h.23l.88-.08h2.37l.9.08H19a4,4,0,0,1,.83.13h.28a.15.15,0,0,0,.13,0c.05,0,.11-.09.11-.15V17a.2.2,0,0,0-.2-.2ZM15.47,5.58a.21.21,0,0,0-.2.2v9.71a.2.2,0,0,0,.2.2H18a.2.2,0,0,0,.2-.2V5.78a.21.21,0,0,0-.2-.2ZM13.68,1.07a.2.2,0,0,0-.2.2v3a.2.2,0,0,0,.2.2h6.1a.2.2,0,0,0,.2-.2v-3a.2.2,0,0,0-.2-.2Z" transform="translate(8 1)"/>
          <rect id="Rectangle-path" x="15.13" y="39.18" width="1.11" height="2.66"/>
          <rect id="Rectangle-path-2" data-name="Rectangle-path" x="21.06" y="39.18" width="1.11" height="2.66"/>
          <rect id="Rectangle-path-3" data-name="Rectangle-path" x="26.99" y="39.18" width="1.11" height="2.66"/>
          <rect id="Rectangle-path-4" data-name="Rectangle-path" x="32.93" y="39.18" width="1.11" height="2.66"/>
          <rect id="Rectangle-path-5" data-name="Rectangle-path" x="18.09" y="45.01" width="1.11" height="2.66"/>
          <rect id="Rectangle-path-6" data-name="Rectangle-path" x="12.16" y="45.01" width="1.11" height="2.66"/>
          <rect id="Rectangle-path-7" data-name="Rectangle-path" x="24.03" y="45.01" width="1.11" height="2.66"/>
          <rect id="Rectangle-path-8" data-name="Rectangle-path" x="29.95" y="45.01" width="1.11" height="2.66"/>
          <rect id="Rectangle-path-9" data-name="Rectangle-path" x="35.89" y="45.01" width="1.11" height="2.66"/>
        </g>
      </g>
    </g>
  </g>
</svg>
