<svg id="Слой_1" data-name="Слой 1" xmlns="http://www.w3.org/2000/svg" viewBox="0 0 50.05 49.92">
  <title>time</title>
  <g id="UI-kit">
    <g id="Icons">
      <g id="Rectangle-6-Copy-4">
        <rect x="0.03" y="0.92" width="50" height="49" style="fill: none"/>
        <g id="noun_clockwise_981024-01" data-name="noun clockwise 981024-01">
          <path id="Shape" d="M44.35,9.06l3.39.61L48,8.53l-5.54-1-1,5.43,1.15.23.69-3.7a22.9,22.9,0,0,1,.85,29.18A23.61,23.61,0,0,1,28.38,47.7a24.2,24.2,0,0,1-17.71-4.45A23.13,23.13,0,0,1,12.11,5a24.22,24.22,0,0,1,25.63-.2l.61-1a22.89,22.89,0,0,0-4.54-2.19A25.31,25.31,0,0,0,5.19,9.8,23.62,23.62,0,0,0,.27,28.06,24.74,24.74,0,0,0,25,49.1a27.78,27.78,0,0,0,3.53-.23A24.59,24.59,0,0,0,45,39.37,24,24,0,0,0,44.35,9.06Z" transform="translate(-0.01 -0.1)"/>
          <path id="Shape-2" data-name="Shape" d="M22.58,7A18,18,0,0,0,7,26,18.31,18.31,0,0,0,36,39.07l-.69-.9a17.37,17.37,0,0,1-19.53.67A16.6,16.6,0,0,1,8.41,21.12,17,17,0,0,1,22.81,8.17Z" transform="translate(-0.01 -0.1)"/>
          <rect id="Rectangle-path" x="17.36" y="11.24" width="1.16" height="2.72" transform="translate(-3.91 10.56) rotate(-30.01)"/>
          <rect id="Rectangle-path-2" data-name="Rectangle-path" x="12.11" y="16.37" width="1.16" height="2.72" transform="translate(-9.02 19.75) rotate(-59.99)"/>
          <rect id="Rectangle-path-3" data-name="Rectangle-path" x="9.34" y="24.11" width="2.77" height="1.13"/>
          <rect id="Rectangle-path-4" data-name="Rectangle-path" x="11.28" y="31.27" width="2.77" height="1.13" transform="matrix(0.87, -0.5, 0.5, 0.87, -14.23, 10.5)"/>
          <rect id="Rectangle-path-5" data-name="Rectangle-path" x="16.56" y="36.41" width="2.77" height="1.13" transform="translate(-23.05 33.92) rotate(-59.99)"/>
          <rect id="Rectangle-path-6" data-name="Rectangle-path" x="24.58" y="37.39" width="1.16" height="2.72"/>
          <rect id="Rectangle-path-7" data-name="Rectangle-path" x="31.73" y="35.6" width="1.16" height="2.72" transform="translate(-14.16 21.01) rotate(-30)"/>
          <path id="Shape-3" data-name="Shape" d="M37.43,38l.54-.53a17.53,17.53,0,0,0,5.38-12.67A20.69,20.69,0,0,0,43,21.05l-.62-2.27A18.32,18.32,0,0,0,25.11,6.87h-.53V22.18a2.82,2.82,0,0,0-2.24,2.57A2.71,2.71,0,0,0,25,27.38a2.36,2.36,0,0,0,1.46-.45l10.62,10.4ZM41.2,19.09l.61,2.18a18.55,18.55,0,0,1,.39,3.48,16.36,16.36,0,0,1-4.66,11.46L27.3,26.1a2.5,2.5,0,0,0,.39-1.35,2.69,2.69,0,0,0-2-2.57V8A17.1,17.1,0,0,1,41.2,19.09ZM25,26.26a1.52,1.52,0,1,1,1.54-1.51A1.53,1.53,0,0,1,25,26.26Z" transform="translate(-0.01 -0.1)"/>
        </g>
      </g>
    </g>
  </g>
</svg>
